<svg width="16" height="16" viewBox="0 0 16 16" fill="none" xmlns="http://www.w3.org/2000/svg">
<path d="M13.0154 3.00079C11.6932 1.66783 10.0533 1 8.09829 1C6.02481 1 4.32564 1.63819 2.99539 2.91462C1.66514 4.191 1 5.83095 1 7.83171C1 9.83247 1.69205 11.4455 3.07348 12.7865C4.4549 14.1275 6.15944 14.7981 8.18715 14.7981C10.099 14.7981 11.712 14.1383 13.0262 12.8161C14.3403 11.494 15 9.87824 15 7.96634C15 6.05445 14.3376 4.33641 13.0154 3.00079ZM7.43855 14.4776C7.20425 14.6877 6.82996 14.7065 6.44757 14.6068C5.84169 14.4534 5.31658 14.0333 5.00423 13.4759C4.56799 12.703 3.86248 10.4868 3.86248 10.4868C3.86248 10.4868 5.98709 11.4293 6.70878 11.9463C7.22852 12.318 7.58933 12.8862 7.6755 13.5055C7.72936 13.896 7.6755 14.2649 7.43855 14.4749V14.4776ZM7.4601 10.8854C7.24466 11.0793 6.90536 11.0927 6.55529 11.0039C6.00059 10.8638 5.52125 10.4788 5.23313 9.96982C4.83457 9.26159 4.18829 7.2366 4.18829 7.2366C4.18829 7.2366 6.13253 8.09829 6.79227 8.57222C7.2662 8.91152 7.59741 9.43126 7.6755 9.99673C7.72668 10.3549 7.6755 10.6915 7.45738 10.8827L7.4601 10.8854ZM7.48164 7.71322C7.28775 7.88825 6.97808 7.90171 6.66032 7.82094C6.15676 7.69436 5.7232 7.34429 5.46202 6.88385C5.10118 6.24294 4.51681 4.40372 4.51681 4.40372C4.51681 4.40372 6.28062 5.18736 6.87845 5.61551C7.30929 5.92518 7.60818 6.39374 7.6809 6.90808C7.72668 7.2312 7.6809 7.53818 7.48432 7.71322H7.48164ZM8.01752 5.09581C7.77785 5.09581 7.55704 4.91537 7.39006 4.66762C7.12617 4.27178 7.03999 3.77093 7.14503 3.29428C7.29043 2.63723 8.0148 1.02423 8.0148 1.02423C8.0148 1.02423 8.73917 2.63455 8.88461 3.29428C8.98961 3.76825 8.90615 4.27178 8.63954 4.66762C8.47259 4.91537 8.25447 5.09581 8.01211 5.09581H8.01752ZM8.31641 6.90808C8.3891 6.39374 8.68803 5.9225 9.11887 5.61551C9.71666 5.18736 11.4805 4.40372 11.4805 4.40372C11.4805 4.40372 10.8961 6.24025 10.5353 6.88385C10.2741 7.34701 9.84055 7.69436 9.33699 7.82094C9.01924 7.90171 8.70957 7.88825 8.51568 7.71322C8.32178 7.53818 8.27333 7.23389 8.3191 6.90808H8.31641ZM11.8063 7.2366C11.8063 7.2366 11.16 9.26159 10.7615 9.96982C10.4761 10.4788 9.99405 10.8638 9.43931 11.0039C9.08924 11.0927 8.74994 11.0766 8.53454 10.8854C8.3191 10.6942 8.26792 10.3549 8.31641 9.99942C8.39718 9.43394 8.72571 8.91424 9.19964 8.57494C9.85938 8.10098 11.8036 7.23929 11.8036 7.23929L11.8063 7.2366ZM10.9931 13.4786C10.6807 14.036 10.1556 14.4561 9.54971 14.6096C9.16733 14.7065 8.79571 14.6903 8.55876 14.4803C8.32178 14.2703 8.26524 13.9013 8.32178 13.5109C8.40796 12.8915 8.7688 12.3233 9.2885 11.9517C10.0102 11.4347 12.1348 10.4922 12.1348 10.4922C12.1348 10.4922 11.4293 12.7084 10.9931 13.4813V13.4786Z" fill="white"/>
</svg>
