<svg width="721" height="794" viewBox="0 0 721 794" fill="none" xmlns="http://www.w3.org/2000/svg">
<path d="M0 -119V913H903V-119H0ZM325.715 661.636C316.374 670.018 301.451 670.771 286.206 666.794C262.049 660.669 241.114 643.904 228.66 621.659C211.267 590.816 183.138 502.371 183.138 502.371C183.138 502.371 267.847 539.984 296.62 560.618C317.341 575.448 331.727 598.123 335.163 622.841C337.31 638.423 335.163 653.146 325.715 661.529V661.636ZM326.574 518.276C317.985 526.013 304.457 526.551 290.5 523.004C268.383 517.416 249.273 502.048 237.785 481.737C221.896 453.474 196.129 372.659 196.129 372.659C196.129 372.659 273.644 407.048 299.948 425.962C318.844 439.503 332.049 460.244 335.163 482.812C337.202 497.105 335.163 510.538 326.466 518.168L326.574 518.276ZM327.433 391.68C319.702 398.666 307.356 399.203 294.687 395.979C274.61 390.928 257.325 376.958 246.911 358.581C232.525 333.004 209.227 259.604 209.227 259.604C209.227 259.604 279.549 290.877 303.383 307.964C320.561 320.323 332.479 339.022 335.377 359.548C337.202 372.444 335.377 384.695 327.54 391.68H327.433ZM323.782 270.136C313.261 254.446 309.825 234.35 314.012 215.328C319.81 189.106 348.69 124.734 348.69 124.734C348.69 124.734 377.571 188.999 383.368 215.328C387.555 234.242 384.227 254.338 373.598 270.136C366.942 280.023 358.245 287.223 348.583 287.223C338.92 287.223 330.224 280.023 323.567 270.136H323.782ZM360.715 359.548C363.613 339.022 375.531 320.215 392.709 307.964C416.543 290.877 486.865 259.604 486.865 259.604C486.865 259.604 463.567 332.896 449.181 358.581C438.767 377.065 421.482 390.928 401.405 395.979C388.736 399.203 376.39 398.666 368.66 391.68C360.929 384.695 358.997 372.551 360.822 359.548H360.715ZM360.715 482.919C363.936 460.352 377.034 439.61 395.929 426.07C422.233 407.156 499.748 372.766 499.748 372.766C499.748 372.766 473.982 453.581 458.092 481.845C446.712 502.156 427.494 517.524 405.377 523.112C391.42 526.658 377.893 526.013 369.304 518.383C360.715 510.753 358.675 497.212 360.607 483.027L360.715 482.919ZM467.325 621.766C454.871 644.012 433.936 660.776 409.779 666.902C394.534 670.771 379.718 670.126 370.27 661.744C360.929 653.361 358.568 638.638 360.822 623.056C364.258 598.338 378.644 575.663 399.365 560.833C428.138 540.199 512.847 502.586 512.847 502.586C512.847 502.586 484.718 591.031 467.325 621.874V621.766Z" fill="white"/>
</svg>
